<?xml version="1.0" standalone="no"?>
<!DOCTYPE svg PUBLIC "-//W3C//DTD SVG 20010904//EN"
 "http://www.w3.org/TR/2001/REC-SVG-20010904/DTD/svg10.dtd">
<svg version="1.0" xmlns="http://www.w3.org/2000/svg"
 width="200.000000pt" height="200.000000pt" viewBox="0 0 200.000000 200.000000"
 preserveAspectRatio="xMidYMid meet">
<metadata>
Created by potrace 1.11, written by Peter Selinger 2001-2013
</metadata>
<g transform="translate(0.000000,200.000000) scale(0.100000,-0.100000)"
fill="#000000" stroke="none">
<path d="M1539 1583 c0 -5 -2 -17 -4 -27 -3 -17 12 -60 16 -46 6 25 5 80 -2
80 -5 0 -9 -3 -10 -7z"/>
<path d="M1420 1542 c0 -14 49 -56 57 -49 3 4 -4 18 -17 32 -24 25 -40 32 -40
17z"/>
<path d="M1625 1520 c-20 -21 -24 -30 -14 -30 20 0 63 46 51 54 -5 3 -22 -8
-37 -24z"/>
<path d="M1502 1473 c-36 -31 -37 -60 -4 -92 17 -18 37 -28 48 -26 10 2 21 4
24 4 17 3 32 21 39 49 18 60 -59 106 -107 65z"/>
<path d="M1380 1420 c0 -5 15 -10 34 -10 19 0 38 5 41 10 4 6 -10 10 -34 10
-23 0 -41 -4 -41 -10z"/>
<path d="M1640 1420 c0 -5 16 -10 35 -10 19 0 35 5 35 10 0 6 -16 10 -35 10
-19 0 -35 -4 -35 -10z"/>
<path d="M1116 1362 c-4 -6 -3 -20 2 -29 11 -18 -1 -55 -98 -301 l-52 -133
-127 3 -126 3 1 28 c1 15 2 32 3 37 0 6 34 10 76 10 53 0 75 4 75 13 0 20
-153 357 -163 357 -7 0 -41 -69 -139 -279 -16 -35 -27 -70 -24 -77 3 -9 29
-14 78 -16 78 -3 74 1 69 -63 -1 -12 -16 -15 -75 -15 -41 0 -78 -4 -81 -10 -7
-11 18 -11 578 -13 230 0 321 3 329 11 9 9 -1 12 -44 12 l-56 0 -30 73 c-49
119 -123 300 -134 327 -8 20 -11 22 -20 10 -8 -12 -9 -12 -4 3 3 9 9 24 13 34
5 13 2 15 -15 11 -11 -3 -23 -1 -25 5 -2 8 -6 7 -11 -1z m-1 -177 c-10 -25
-20 -44 -22 -42 -2 2 5 25 14 50 9 25 19 44 21 42 2 -2 -4 -24 -13 -50z m-500
-96 c-15 -35 -32 -68 -37 -74 -13 -12 -11 -8 27 78 37 84 45 81 10 -4z"/>
<path d="M1442 1341 c-27 -37 -13 -49 18 -16 16 17 20 29 14 35 -7 7 -18 0
-32 -19z"/>
<path d="M1625 1330 c15 -16 32 -27 37 -24 12 8 -31 54 -51 54 -10 0 -6 -9 14
-30z"/>
<path d="M1539 1323 c0 -4 -2 -17 -4 -27 -2 -11 0 -27 5 -35 5 -9 10 -11 11
-6 7 48 6 65 -2 70 -5 4 -9 3 -10 -2z"/>
<path d="M1383 748 c-7 -11 -10 -139 -4 -220 2 -26 70 -24 99 2 27 26 27 31 1
64 -11 14 -15 26 -9 26 6 0 17 14 24 32 16 37 5 83 -24 98 -26 14 -76 12 -87
-2z m78 -29 c22 -35 -3 -109 -37 -109 -11 0 -14 15 -14 65 0 60 2 65 21 62 11
-2 25 -10 30 -18z m3 -145 c8 -21 -11 -44 -35 -44 -14 0 -19 7 -19 30 0 25 4
30 24 30 13 0 27 -7 30 -16z"/>
<path d="M146 733 c-5 -19 -23 -109 -32 -159 -3 -16 -7 -37 -10 -46 -4 -12 0
-18 10 -18 9 0 18 11 22 24 4 18 12 23 37 22 25 -1 33 -6 35 -24 2 -13 10 -22
21 -22 16 0 15 9 -8 120 -24 109 -28 120 -48 120 -12 0 -24 -8 -27 -17z m48
-113 c5 -39 4 -40 -23 -40 -28 0 -29 1 -20 38 5 20 12 51 16 67 l7 30 7 -27
c4 -15 10 -46 13 -68z"/>
<path d="M1532 633 c2 -68 7 -117 12 -116 6 2 11 55 12 118 3 96 1 115 -12
115 -12 0 -14 -19 -12 -117z"/>
<path d="M1856 715 c-3 -9 -18 -15 -34 -15 -16 0 -37 -9 -48 -21 -23 -26 -28
-105 -8 -136 11 -18 12 -27 3 -42 -27 -42 11 -65 61 -36 34 19 40 18 40 -5 0
-15 -9 -22 -30 -27 -40 -8 -49 -23 -13 -23 39 0 73 26 73 55 0 37 -30 48 -72
25 -37 -20 -50 -18 -41 6 3 8 17 14 32 14 34 1 55 18 68 55 12 35 9 91 -6 108
-6 8 -6 18 -1 27 14 21 12 30 -4 30 -8 0 -16 -7 -20 -15z m-19 -57 c-4 -15 -1
-18 14 -13 17 6 19 1 19 -34 0 -39 -25 -81 -49 -81 -15 0 -41 30 -42 48 -6 66
10 99 46 99 11 0 15 -6 12 -19z"/>
<path d="M643 695 c-46 -32 -30 -85 33 -105 24 -8 34 -17 32 -28 -5 -25 -37
-27 -59 -3 -24 26 -29 26 -29 1 0 -27 43 -54 75 -46 48 12 57 78 12 92 -12 3
-32 13 -45 20 -18 12 -20 18 -12 34 6 11 19 20 30 20 20 0 44 -32 33 -44 -3
-3 1 -6 9 -6 24 0 29 26 10 50 -22 27 -62 34 -89 15z"/>
<path d="M474 675 c-26 -40 -23 -109 6 -139 30 -33 83 -26 108 14 10 16 10 20
-2 20 -7 0 -19 -7 -26 -15 -25 -31 -80 -6 -80 36 0 17 7 19 61 19 l62 0 -7 33
c-8 40 -30 57 -73 57 -24 0 -37 -7 -49 -25z m88 -19 c14 -20 8 -24 -34 -21
-24 2 -45 4 -48 4 -3 1 5 10 18 21 23 19 50 17 64 -4z"/>
<path d="M781 674 c-54 -69 8 -192 78 -155 28 16 42 45 43 91 1 57 -24 90 -67
90 -24 0 -39 -7 -54 -26z m80 -10 c17 -20 17 -88 0 -108 -31 -38 -71 -8 -71
54 0 61 39 92 71 54z"/>
<path d="M1152 680 c-33 -31 -31 -111 4 -146 29 -30 68 -27 96 9 20 26 5 36
-21 13 -32 -29 -60 -17 -75 32 -7 21 -5 22 53 22 33 0 62 4 65 8 3 5 -3 24
-12 43 -14 28 -23 35 -52 37 -25 2 -42 -3 -58 -18z m69 -10 c33 -18 22 -35
-21 -35 -43 0 -53 16 -22 34 21 13 20 13 43 1z"/>
<path d="M1611 674 c-38 -49 -18 -147 33 -160 53 -13 86 30 86 111 0 34 -5 47
-22 59 -34 24 -73 20 -97 -10z m74 -8 c23 -16 26 -86 6 -110 -32 -39 -73 -5
-73 60 0 57 29 78 67 50z"/>
<path d="M264 675 c-11 -27 3 -136 19 -152 19 -19 45 -11 55 18 8 20 8 20 20
-6 15 -32 41 -30 59 5 7 14 13 53 13 88 0 54 -2 63 -17 60 -14 -2 -16 -14 -14
-70 2 -61 -9 -93 -24 -68 -5 9 -13 62 -14 103 -1 25 -26 21 -28 -5 -4 -54 -15
-108 -23 -113 -13 -8 -23 56 -18 110 4 34 2 45 -9 45 -7 0 -16 -7 -19 -15z"/>
<path d="M936 683 c-3 -3 -6 -42 -6 -85 0 -58 3 -78 13 -78 9 0 14 13 15 33 1
18 9 51 18 72 16 38 17 39 25 17 5 -12 7 -42 5 -66 -3 -48 8 -83 19 -55 3 8 7
36 9 61 3 51 24 88 37 67 4 -7 6 -39 4 -71 -2 -44 0 -58 11 -58 17 0 23 83 9
137 -6 24 -38 32 -50 12 -5 -7 -14 -4 -27 8 -19 17 -20 17 -39 -6 -14 -17 -19
-19 -19 -8 0 18 -14 30 -24 20z"/>
</g>
</svg>
